<svg version="1.2" xmlns="http://www.w3.org/2000/svg" viewBox="0 0 1068 1377" width="1068" height="1377">
	<title>logovectorizado</title>
	<style>
		.s0 { fill: #ffffff } 
		.s1 { fill: #49dffe } 
	</style>
	<g>
		<path class="s0" d="m557.5 8.2c-0.2 0.7-2 7.4-3.9 14.9-14 53.4-37.8 95.2-76.1 133.4-21.5 21.6-41.8 37.4-84 65.5-47 31.3-68.2 49.9-85.4 75-9.7 14.1-19.1 34.8-19.1 42.1 0 2.7 0 2.7-40.2 3.2-31.7 0.3-42.3 0.8-49.8 2.1-52.3 9.3-99.5 36.4-133.2 76.5-23 27.3-40.2 62.9-47.3 97.2-5.6 27.4-5.6 30-5.2 226.9 0.2 130.4 0.7 182.9 1.5 189 5.9 42.8 21.5 80.1 47 112.5 8.3 10.5 28.4 30 39.7 38.5 31.2 23.5 64.6 37.7 105 44.7 9.2 1.6 23.8 1.7 172.8 2l162.7 0.4v97.4c0 67.8 0.3 99 1.1 102.7 1.8 8.5 5.7 15.6 12.3 22.3 7 7.1 13.6 10.8 23.3 13.1 11.6 2.7 25.3 0 35.8-7 11.5-7.7 17.2-13.2 133-128.7 63.6-63.4 97.4-96.4 100.1-97.7 2.3-1.2 11.1-3.5 19.5-5.2 25.3-5 43.7-11.3 65.1-22.1 63-32.2 107-91.3 119-159.9 2.3-13.5 2.3-13.5 2.3-210 0-184.5-0.1-197.2-1.8-208-14.7-93.8-86.3-167.3-179.2-184.1-11.8-2.2-15.8-2.4-44.2-2.4-21.7 0-31.3-0.3-31.3-1.1 0-0.6 1.2-2.1 2.6-3.5 5-4.6 18.7-26.5 26.5-42.4 8.4-17.2 14.6-34.1 18.4-50 3.9-16.5 7.6-46.5 5.8-46.5-0.5 0-11 10.2-23.4 22.6-22.6 22.7-36.1 34.8-54.4 48.6-21.9 16.5-50.3 33.3-77.8 46-8.4 3.9-16.5 7.9-18 9-1.9 1.4-3.2 1.7-3.9 1-0.6-0.6 0.2-1.9 2.7-3.8 4.3-3.4 18.5-19.7 26-29.9 21.7-29.3 38.6-67.2 45.3-101.5 3.9-19.9 4.6-26.5 4.6-46.5-0.1-22.6-1.7-36-6.5-54.4-5.1-19-15.9-46.6-18.3-46.6-0.5 0-3 6.3-5.6 14-11.8 35.1-27.3 64.4-49 92.5-9.3 12-34.2 37.4-48.5 49.5-23.5 19.8-49 37.4-78.1 54-9.3 5.3-18.6 10.8-20.6 12.1-3.9 2.5-5.8 3-5.8 1.5 0-0.4 2.8-3.8 6.3-7.3 15.2-15.8 33.4-45.9 44-72.8 10.8-27.5 15.7-52.9 15.7-82.1 0-32.7-6.1-59.1-20.1-87.1-4.9-9.8-6.6-12-7.4-9.6zm300.8 416.8c28.3 4.8 50.8 15.5 71 33.7 25.2 22.7 39.3 50 44.2 85.7 1.4 9.8 1.5 33.8 1.2 196.6-0.3 185.5-0.3 185.5-2.5 195.4-6.7 30.5-19.1 53.6-39.6 74-23.5 23.2-46.3 33.9-84.7 39.6-17.3 2.5-25.5 5.2-34.6 11.3-10.6 7.1-17.3 13.6-106.3 102.1-45.9 45.6-83.9 83-84.3 83-0.4 0.1-0.7-35.7-0.7-79.4 0-88.7 0.3-84.5-6.9-95.8-4.7-7.2-13.7-14.3-21.4-16.9-4.9-1.7-17.4-1.8-187.2-2.3-182-0.6-182-0.6-193.1-2.8-35.3-7-55.6-17.1-77.8-39-23.7-23.2-36.3-48.8-41-83-1.4-9.9-1.6-33.8-1.6-191.5 0-195.4-0.1-191.5 5.4-212.2 13.6-50.9 55.7-89.4 108-98.6 9.5-1.6 28.4-1.7 325.3-1.8 309.2-0.1 315.3-0.1 326.6 1.9z"/>
		<path class="s1" d="m730 577.6c-1.4 0.2-5.2 0.9-8.5 1.5-9 1.6-25.5 8.4-34.2 14.1-13.9 9.1-27.5 23.8-35.6 38.8-4.7 8.5-9.1 22.2-11.1 33.9-5.8 34.3 6.4 70 32.3 94.4 30.1 28.4 71.9 36.3 110.4 20.9 25.3-10.2 47-32.5 57.2-59.1 15.3-39.7 5.9-83.6-24.5-114.1-19.7-19.9-42.7-29.8-70.5-30.5-7.1-0.2-14.1-0.2-15.5 0.1z"/>
		<path class="s0" d="m302.5 598.5c-35.5 6.6-63.9 33.4-73.1 69-2.3 9.1-2.5 11.4-2.1 25 0.3 13 0.7 16.1 3.2 23.5 5.6 17.2 13.3 29.7 25.1 41.1 8.5 8.1 14 11.8 24.6 16.9 13 6.2 22.1 8.3 37.3 8.4 26 0.2 47.9-8.6 65.6-26.4 19.6-19.7 28.9-43.2 27.6-70.4-2-45.1-34.8-80.8-80.4-87.5-9.1-1.4-18.9-1.2-27.8 0.4z"/>
		<path class="s0" d="m398.5 876.7c-7.7 4-11.5 10.3-11.5 19.1 0 5.1 0.5 6.7 3.3 10.8 2.8 4.3 4.7 5.6 16.2 11.4 40.5 20.4 77.9 29.1 126 29.3 45.5 0.2 81-7.9 122.2-27.9 15-7.3 18.8-10.1 21.4-15.9 5.8-12.7-2.5-27.1-16.4-28.3-4.7-0.4-6.5 0.1-16.5 4.7-22.2 10.2-37.6 15.4-56.9 19.5-56.5 11.9-114.3 4.7-167.3-20.8-8.4-4-15.3-4.7-20.5-1.9z"/>
	</g>
</svg>